<?xml version='1.0' encoding='utf-8'?>
<svg xmlns="http://www.w3.org/2000/svg" width="60mm" height="81.5mm" viewBox="0 0 736196 1000000"><defs><style>.C1 {stroke: #ffffff; stroke-width: 2209; stroke-opacity: 1.000; fill: none; fill-opacity: 1.000;}</style></defs><rect fill="#212830" x="0" y="0" width="736196" height="1000000" fill-opacity="1.0" /><g stroke-linecap="round" stroke-linejoin="round" fill-rule="evenodd"><path d="M 12270 18405 c -6776 0 -12270 5493 -12270 12270" class="C1" /><path d="M 12270 18405 l 711656 0" class="C1" /><path d="M 736196 30675 c 0 -6776 -5493 -12270 -12270 -12270" class="C1" /><path d="M 736196 30675 l 0 957055" class="C1" /><path d="M 723926 1000000 c 6776 0 12270 -5493 12270 -12270" class="C1" /><path d="M 723926 1000000 l -711656 0" class="C1" /><path d="M 0 987730 l 0 -957055" class="C1" /><path d="M 0 987730 c 0 6776 5493 12270 12270 12270" class="C1" /><path d="M 36810 42945 c -6776 0 -12270 5493 -12270 12270" class="C1" /><path d="M 24540 251534 c 0 6776 5493 12270 12270 12270" class="C1" /><path d="M 24540 251534 l 0 -196319" class="C1" /><path d="M 73620 263804 l 0 -220859" class="C1" /><path d="M 392638 42945 c -6776 0 -12270 5493 -12270 12270" class="C1" /><path d="M 380368 251534 c 0 6776 5493 12270 12270 12270" class="C1" /><path d="M 380368 251534 l 0 -196319" class="C1" /><path d="M 429448 263804 l 0 -220859" class="C1" /><path d="M 711656 55215 c 0 -6776 -5493 -12270 -12270 -12270" class="C1" /><path d="M 699387 263804 c 6776 0 12270 -5493 12270 -12270" class="C1" /><path d="M 711656 55215 l 0 196319" class="C1" /><path d="M 355828 55215 c 0 -6776 -5493 -12270 -12270 -12270" class="C1" /><path d="M 343558 263804 c 6776 0 12270 -5493 12270 -12270" class="C1" /><path d="M 355828 55215 l 0 196319" class="C1" /><path d="M 36810 42945 l 306748 0" class="C1" /><path d="M 699387 263804 l -306748 0" class="C1" /><path d="M 343558 263804 l -306748 0" class="C1" /><path d="M 392638 42945 l 306748 0" class="C1" /><path d="M 0 288344 l 736196 0" class="C1" /><path d="M 0 337423 l 736196 0" class="C1" /><path d="M 0 18405 l 0 -18405" class="C1" /><path d="M 0 18405 l 736196 0" class="C1" /><path d="M 0 0 l 736196 0" class="C1" /><path d="M 736196 18405 l 0 -18405" class="C1" /></g></svg>