<?xml version='1.0' encoding='utf-8'?>
<svg xmlns="http://www.w3.org/2000/svg" width="39mm" height="75.5mm" viewBox="0 0 516556 1000000"><defs><style>.C1 {stroke: #ffffff; stroke-width: 2384; stroke-opacity: 1.000; fill: none; fill-opacity: 1.000;}</style></defs><rect fill="#212830" x="0" y="0" width="516556" height="1000000" fill-opacity="1.0" /><g stroke-linecap="round" stroke-linejoin="round" fill-rule="evenodd"><path d="M 13245 19868 c -7315 0 -13245 5930 -13245 13245" class="C1" /><path d="M 0 986755 c 0 7315 5930 13245 13245 13245" class="C1" /><path d="M 0 33113 l 0 953642" class="C1" /><path d="M 516556 33113 l 0 953642" class="C1" /><path d="M 516556 33113 c 0 -7315 -5930 -13245 -13245 -13245" class="C1" /><path d="M 503311 1000000 c 7315 0 13245 -5930 13245 -13245" class="C1" /><path d="M 13245 1000000 l 490066 0" class="C1" /><path d="M 13245 19868 l 490066 0" class="C1" /><path d="M 0 311258 l 516556 0" class="C1" /><path d="M 0 364238 l 516556 0" class="C1" /><path d="M 112583 46358 c -7315 0 -13245 5930 -13245 13245" class="C1" /><path d="M 99338 271523 c 0 7315 5930 13245 13245 13245" class="C1" /><path d="M 99338 271523 l 0 -211921" class="C1" /><path d="M 152318 284768 l 0 -238411" class="C1" /><path d="M 417219 59603 c 0 -7315 -5930 -13245 -13245 -13245" class="C1" /><path d="M 403974 284768 c 7315 0 13245 -5930 13245 -13245" class="C1" /><path d="M 417219 59603 l 0 211921" class="C1" /><path d="M 112583 46358 l 291391 0" class="C1" /><path d="M 403974 284768 l -291391 0" class="C1" /><path d="M 0 19868 l 0 -19868" class="C1" /><path d="M 516556 19868 l 0 -19868" class="C1" /><path d="M 0 19868 l 516556 0" class="C1" /><path d="M 0 0 l 516556 0" class="C1" /></g></svg>