<?xml version='1.0' encoding='utf-8'?>
<svg xmlns="http://www.w3.org/2000/svg" width="18mm" height="20.6mm" viewBox="0 0 873786 1000000"><defs><style>.C1 {stroke: #ffffff; stroke-width: 8738; stroke-opacity: 1.000; fill: none; fill-opacity: 1.000;}</style></defs><rect fill="#212830" x="0" y="0" width="873786" height="1000000" fill-opacity="1.0" /><g stroke-linecap="round" stroke-linejoin="round" fill-rule="evenodd"><path d="M 11804 122417 c -2950 1337 -5242 3799 -6365 6837 c -1123 3038 -983 6399 389 9333" class="C1" /><path d="M 861983 122417 c -270173 -122417 -580006 -122417 -850179 0" class="C1" /><path d="M 867959 138586 c 1372 -2934 1512 -6295 389 -9333 c -1123 -3038 -3415 -5500 -6365 -6837" class="C1" /><path d="M 859440 156806 l 8518 -18219" class="C1" /><path d="M 843678 162806 c 6012 2585 12991 -72 15763 -6000" class="C1" /><path d="M 14346 156806 l -8518 -18219" class="C1" /><path d="M 843678 162806 c -259700 -111642 -553870 -111642 -813569 -0" class="C1" /><path d="M 14346 156806 c 2772 5929 9750 8585 15763 6000" class="C1" /><path d="M 1400 987189 l 47735 -832337" class="C1" /><path d="M 1400 987189 c -191 3329 998 6589 3287 9013 c 2289 2424 5476 3798 8810 3798" class="C1" /><path d="M 872387 987189 l -47735 -832337" class="C1" /><path d="M 860289 1000000 l -846792 0" class="C1" /><path d="M 860289 1000000 c 3334 0 6521 -1374 8810 -3798 c 2289 -2424 3478 -5684 3287 -9013" class="C1" /></g></svg>