<?xml version='1.0' encoding='utf-8'?>
<svg xmlns="http://www.w3.org/2000/svg" width="32mm" height="36mm" viewBox="0 0 888889 1000000"><defs><style>.C1 {stroke: #ffffff; stroke-width: 5000; stroke-opacity: 1.000; fill: none; fill-opacity: 1.000;}</style></defs><rect fill="#212830" x="0" y="0" width="888889" height="1000000" fill-opacity="1.0" /><g stroke-linecap="round" stroke-linejoin="round" fill-rule="evenodd"><path d="M 833333 1000000 c 30682 0 55556 -24873 55556 -55556" class="C1" /><path d="M 666667 333333 l 0 611111" class="C1" /><path d="M 833333 1000000 l -111111 0" class="C1" /><path d="M 666667 944444 c 0 30682 24873 55556 55556 55556" class="C1" /><path d="M 833333 333333 c 30682 0 55556 -24873 55556 -55556" class="C1" /><path d="M 888889 277778 l 0 666667" class="C1" /><path d="M 888889 55556 c 0 -30682 -24873 -55556 -55556 -55556" class="C1" /><path d="M 0 944444 c 0 30682 24873 55556 55556 55556" class="C1" /><path d="M 611111 1000000 c 30682 0 55556 -24873 55556 -55556" class="C1" /><path d="M 0 277778 c 0 30682 24873 55556 55556 55556" class="C1" /><path d="M 0 944444 l 0 -666667" class="C1" /><path d="M 55556 0 c -30682 0 -55556 24873 -55556 55556" class="C1" /><path d="M 0 277778 l 0 -166667" class="C1" /><path d="M 0 111111 l 0 -55556" class="C1" /><path d="M 55556 0 l 777778 0" class="C1" /><path d="M 55556 333333 l 777778 0" class="C1" /><path d="M 0 111111 l 888889 0" class="C1" /><path d="M 888889 111111 l 0 166667" class="C1" /><path d="M 888889 111111 l 0 -55556" class="C1" /><path d="M 611111 1000000 l -555556 0" class="C1" /><path d="M 611111 1000000 l 111111 0" class="C1" /></g></svg>