<?xml version='1.0' encoding='utf-8'?>
<svg xmlns="http://www.w3.org/2000/svg" width="32mm" height="60mm" viewBox="0 0 533333 1000000"><defs><style>.C1 {stroke: #ffffff; stroke-width: 3000; stroke-opacity: 1.000; fill: none; fill-opacity: 1.000;}</style></defs><rect fill="#212830" x="0" y="0" width="533333" height="1000000" fill-opacity="1.0" /><g stroke-linecap="round" stroke-linejoin="round" fill-rule="evenodd"><path d="M 0 566667 c 0 18409 14924 33333 33333 33333" class="C1" /><path d="M 100000 600000 l -66667 0" class="C1" /><path d="M 133333 566667 l 0 -366667" class="C1" /><path d="M 100000 600000 c 18409 0 33333 -14924 33333 -33333" class="C1" /><path d="M 0 166667 c 0 18409 14924 33333 33333 33333" class="C1" /><path d="M 0 566667 l 0 -400000" class="C1" /><path d="M 33333 0 c -18409 0 -33333 14924 -33333 33333" class="C1" /><path d="M 0 166667 l 0 -100000" class="C1" /><path d="M 0 66667 l 0 -33333" class="C1" /><path d="M 500000 200000 c 18409 0 33333 -14924 33333 -33333" class="C1" /><path d="M 533333 33333 c 0 -18409 -14924 -33333 -33333 -33333" class="C1" /><path d="M 33333 200000 l 466667 0" class="C1" /><path d="M 33333 0 l 466667 0" class="C1" /><path d="M 0 66667 l 533333 0" class="C1" /><path d="M 0 566667 l 0 400000" class="C1" /><path d="M 0 966667 c 0 18409 14924 33333 33333 33333" class="C1" /><path d="M 500000 1000000 l -466667 0" class="C1" /><path d="M 500000 1000000 c 18409 0 33333 -14924 33333 -33333" class="C1" /><path d="M 533333 166667 l 0 800000" class="C1" /><path d="M 533333 66667 l 0 100000" class="C1" /><path d="M 533333 66667 l 0 -33333" class="C1" /></g></svg>