<?xml version='1.0' encoding='utf-8'?>
<svg xmlns="http://www.w3.org/2000/svg" width="90mm" height="44mm" viewBox="0 0 1000000 488889"><defs><style>.C1 {stroke: #ffffff; stroke-width: 2000; stroke-opacity: 1.000; fill: none; fill-opacity: 1.000;}</style></defs><rect fill="#212830" x="0" y="0" width="1000000" height="488889" fill-opacity="1.0" /><g stroke-linecap="round" stroke-linejoin="round" fill-rule="evenodd"><path d="M 133333 0 c -18409 0 -33333 14924 -33333 33333" class="C1" /><path d="M 133333 0 l 733333 0" class="C1" /><path d="M 900000 33333 c 0 -18409 -14924 -33333 -33333 -33333" class="C1" /><path d="M 900000 33333 l 0 422222" class="C1" /><path d="M 866667 488889 c 18409 0 33333 -14924 33333 -33333" class="C1" /><path d="M 866667 488889 l -733333 0" class="C1" /><path d="M 100000 33333 l 0 422222" class="C1" /><path d="M 100000 455556 c 0 18409 14924 33333 33333 33333" class="C1" /><path d="M 1000000 33333 l -172 -3408 m 0 0 l -505 -3310 m 0 0 l -821 -3194 m 0 0 l -1121 -3063 m 0 0 l -1404 -2914 m 0 0 l -1670 -2748 m 0 0 l -1919 -2566 m 0 0 l -2151 -2367 m 0 0 l -2367 -2151 m 0 0 l -2566 -1919 m 0 0 l -2748 -1670 m 0 0 l -2914 -1404 m 0 0 l -3063 -1121 m 0 0 l -3194 -821 m 0 0 l -3310 -505 m 0 0 l -3408 -172" class="C1" /><path d="M 1000000 33333 l 0 70556 m 0 35278 l 0 70556 m 0 35278 l 0 70556 m 0 35278 l 0 70556" class="C1" /><path d="M 966667 488889 l 3408 -172 m 0 0 l 3310 -505 m 0 0 l 3194 -821 m 0 0 l 3063 -1121 m 0 0 l 2914 -1404 m 0 0 l 2748 -1670 m 0 0 l 2566 -1919 m 0 0 l 2367 -2151 m 0 0 l 2151 -2367 m 0 0 l 1919 -2566 m 0 0 l 1670 -2748 m 0 0 l 1404 -2914 m 0 0 l 1121 -3063 m 0 0 l 821 -3194 m 0 0 l 505 -3310 m 0 0 l 172 -3408" class="C1" /><path d="M 33333 0 l -3408 172 m 0 0 l -3310 505 m 0 0 l -3194 821 m 0 0 l -3063 1121 m 0 0 l -2914 1404 m 0 0 l -2748 1670 m 0 0 l -2566 1919 m 0 0 l -2367 2151 m 0 0 l -2151 2367 m 0 0 l -1919 2566 m 0 0 l -1670 2748 m 0 0 l -1404 2914 m 0 0 l -1121 3063 m 0 0 l -821 3194 m 0 0 l -505 3310 m 0 0 l -172 3408" class="C1" /><path d="M 0 33333 l 0 70556 m 0 35278 l 0 70556 m 0 35278 l 0 70556 m 0 35278 l 0 70556" class="C1" /><path d="M 0 455556 l 172 3408 m 0 0 l 505 3310 m 0 0 l 821 3194 m 0 0 l 1121 3063 m 0 0 l 1404 2914 m 0 0 l 1670 2748 m 0 0 l 1919 2566 m 0 0 l 2151 2367 m 0 0 l 2367 2151 m 0 0 l 2566 1919 m 0 0 l 2748 1670 m 0 0 l 2914 1404 m 0 0 l 3063 1121 m 0 0 l 3194 821 m 0 0 l 3310 505 m 0 0 l 3408 172" class="C1" /><path d="M 33333 0 l 70556 0" class="C1" /><path d="M 866667 0 l 70556 0" class="C1" /><path d="M 866667 488889 l 70556 0" class="C1" /><path d="M 33333 488889 l 70556 0" class="C1" /></g></svg>