<?xml version='1.0' encoding='utf-8'?>
<svg xmlns="http://www.w3.org/2000/svg" width="90mm" height="44mm" viewBox="0 0 1000000 488889"><defs><style>.C1 {stroke: #ffffff; stroke-width: 2000; stroke-opacity: 1.000; fill: none; fill-opacity: 1.000;}</style></defs><rect fill="#212830" x="0" y="0" width="1000000" height="488889" fill-opacity="1.0" /><g stroke-linecap="round" stroke-linejoin="round" fill-rule="evenodd"><path d="M 186173 0 c -12304 0 -23607 6778 -29403 17631" class="C1" /><path d="M 186173 0 l 627654 0" class="C1" /><path d="M 843230 17631 c -5796 -10853 -17099 -17631 -29403 -17631" class="C1" /><path d="M 843230 471258 c 75693 -141736 75693 -311891 0 -453627" class="C1" /><path d="M 813827 488889 c 12304 0 23607 -6778 29403 -17631" class="C1" /><path d="M 813827 488889 l -627654 0" class="C1" /><path d="M 156770 17631 c -75693 141736 -75693 311891 0 453627" class="C1" /><path d="M 156770 471258 c 5796 10853 17099 17631 29403 17631" class="C1" /><path d="M 943230 17631 l -1150 -1987 m 0 0 l -1273 -1887 m 0 0 l -1389 -1784 m 0 0 l -1498 -1676 m 0 0 l -1600 -1565 m 0 0 l -1697 -1450 m 0 0 l -1786 -1330 m 0 0 l -1869 -1207 m 0 0 l -1945 -1080 m 0 0 l -2015 -949 m 0 0 l -2078 -814 m 0 0 l -2134 -675 m 0 0 l -2184 -532 m 0 0 l -2227 -385 m 0 0 l -2264 -234 m 0 0 l -2294 -79" class="C1" /><path d="M 943230 471258 l 6874 -13369 m 0 0 l 6431 -13525 m 0 0 l 5987 -13671 m 0 0 l 5544 -13806 m 0 0 l 3693 -10088 m 10693 -33608 l 3354 -12674 m 0 0 l 3326 -14327 m 0 0 l 2883 -14400 m 0 0 l 2439 -14462 m 0 0 l 1824 -13261 m 3049 -35136 l 449 -9867 m 0 0 l 222 -14618 m 0 0 l -222 -14618 m 0 0 l -665 -14608 m 0 0 l -1109 -14587 m 0 0 l -232 -2175 m -4676 -34957 l -1079 -6400 m 0 0 l -2883 -14400 m 0 0 l -3326 -14327 m 0 0 l -3770 -14243 m 0 0 l -4213 -14150 m 0 0 l -1628 -4911 m -12160 -33105 l -1513 -3767 m 0 0 l -5987 -13671 m 0 0 l -6431 -13525 m 0 0 l -6874 -13369" class="C1" /><path d="M 913827 488889 l 2294 -79 m 0 0 l 2264 -234 m 0 0 l 2227 -385 m 0 0 l 2184 -532 m 0 0 l 2134 -675 m 0 0 l 2078 -814 m 0 0 l 2015 -949 m 0 0 l 1945 -1080 m 0 0 l 1869 -1207 m 0 0 l 1786 -1330 m 0 0 l 1697 -1450 m 0 0 l 1600 -1565 m 0 0 l 1498 -1676 m 0 0 l 1389 -1784 m 0 0 l 1273 -1887 m 0 0 l 1150 -1987" class="C1" /><path d="M 86173 0 l -2294 79 m 0 0 l -2264 234 m 0 0 l -2227 385 m 0 0 l -2184 532 m 0 0 l -2134 675 m 0 0 l -2078 814 m 0 0 l -2015 949 m 0 0 l -1945 1080 m 0 0 l -1869 1207 m 0 0 l -1786 1330 m 0 0 l -1697 1450 m 0 0 l -1600 1565 m 0 0 l -1498 1676 m 0 0 l -1389 1784 m 0 0 l -1273 1887 m 0 0 l -1150 1987" class="C1" /><path d="M 56770 17631 l -6874 13369 m 0 0 l -6431 13525 m 0 0 l -5987 13671 m 0 0 l -5544 13806 m 0 0 l -3693 10088 m -10693 33608 l -3354 12674 m 0 0 l -3326 14327 m 0 0 l -2883 14400 m 0 0 l -2439 14462 m 0 0 l -1824 13261 m -3049 35136 l -449 9867 m 0 0 l -222 14618 m 0 0 l 222 14618 m 0 0 l 665 14608 m 0 0 l 1109 14587 m 0 0 l 232 2175 m 4676 34957 l 1079 6400 m 0 0 l 2883 14400 m 0 0 l 3326 14327 m 0 0 l 3770 14243 m 0 0 l 4213 14150 m 0 0 l 1628 4911 m 12160 33105 l 1513 3767 m 0 0 l 5987 13671 m 0 0 l 6431 13525 m 0 0 l 6874 13369" class="C1" /><path d="M 56770 471258 l 1150 1987 m 0 0 l 1273 1887 m 0 0 l 1389 1784 m 0 0 l 1498 1676 m 0 0 l 1600 1565 m 0 0 l 1697 1450 m 0 0 l 1786 1330 m 0 0 l 1869 1207 m 0 0 l 1945 1080 m 0 0 l 2015 949 m 0 0 l 2078 814 m 0 0 l 2134 675 m 0 0 l 2184 532 m 0 0 l 2227 385 m 0 0 l 2264 234 m 0 0 l 2294 79" class="C1" /><path d="M 86173 0 l 70556 0" class="C1" /><path d="M 813827 0 l 70556 0" class="C1" /><path d="M 813827 488889 l 70556 0" class="C1" /><path d="M 86173 488889 l 70556 0" class="C1" /></g></svg>