<?xml version='1.0' encoding='utf-8'?>
<svg xmlns="http://www.w3.org/2000/svg" width="54mm" height="75.5mm" viewBox="0 0 715232 1000000"><defs><style>.C1 {stroke: #000000; stroke-width: 2384; stroke-opacity: 1.000; fill: none; fill-opacity: 1.000;}</style></defs><g stroke-linecap="round" stroke-linejoin="round" fill-rule="evenodd"><path d="M 715232 33113 c 0 -7315 -5930 -13245 -13245 -13245" class="C1" /><path d="M 13245 19868 c -7315 0 -13245 5930 -13245 13245" class="C1" /><path d="M 0 986755 c 0 7315 5930 13245 13245 13245" class="C1" /><path d="M 13245 1000000 l 688742 0" class="C1" /><path d="M 0 33113 l 0 953642" class="C1" /><path d="M 701987 1000000 c 7315 0 13245 -5930 13245 -13245" class="C1" /><path d="M 715232 33113 l 0 953642" class="C1" /><path d="M 13245 19868 l 688742 0" class="C1" /><path d="M 0 311258 l 715232 0" class="C1" /><path d="M 0 364238 l 715232 0" class="C1" /><path d="M 39735 46358 c -7315 0 -13245 5930 -13245 13245" class="C1" /><path d="M 26490 271523 c 0 7315 5930 13245 13245 13245" class="C1" /><path d="M 26490 271523 l 0 -211921" class="C1" /><path d="M 79470 284768 l 0 -238411" class="C1" /><path d="M 344371 59603 c 0 -7315 -5930 -13245 -13245 -13245" class="C1" /><path d="M 331126 284768 c 7315 0 13245 -5930 13245 -13245" class="C1" /><path d="M 344371 59603 l 0 211921" class="C1" /><path d="M 39735 46358 l 291391 0" class="C1" /><path d="M 331126 284768 l -291391 0" class="C1" /><path d="M 384106 46358 c -7315 0 -13245 5930 -13245 13245" class="C1" /><path d="M 370861 271523 c 0 7315 5930 13245 13245 13245" class="C1" /><path d="M 370861 271523 l 0 -211921" class="C1" /><path d="M 423841 284768 l 0 -238411" class="C1" /><path d="M 688742 59603 c 0 -7315 -5930 -13245 -13245 -13245" class="C1" /><path d="M 675497 284768 c 7315 0 13245 -5930 13245 -13245" class="C1" /><path d="M 688742 59603 l 0 211921" class="C1" /><path d="M 384106 46358 l 291391 0" class="C1" /><path d="M 675497 284768 l -291391 0" class="C1" /><path d="M 0 19868 l 0 -19868" class="C1" /><path d="M 0 19868 l 715232 0" class="C1" /><path d="M 715232 19868 l 0 -19868" class="C1" /><path d="M 0 0 l 715232 0" class="C1" /></g></svg>