<?xml version='1.0' encoding='utf-8'?>
<svg xmlns="http://www.w3.org/2000/svg" width="76mm" height="81.5mm" viewBox="0 0 932515 1000000"><defs><style>.C1 {stroke: #000000; stroke-width: 2209; stroke-opacity: 1.000; fill: none; fill-opacity: 1.000;}</style></defs><g stroke-linecap="round" stroke-linejoin="round" fill-rule="evenodd"><path d="M 12270 18405 c -6776 0 -12270 5493 -12270 12270" class="C1" /><path d="M 0 987730 l 0 -957055" class="C1" /><path d="M 0 987730 c 0 6776 5493 12270 12270 12270" class="C1" /><path d="M 932515 987730 l 0 -957055" class="C1" /><path d="M 932515 30675 c 0 -6776 -5493 -12270 -12270 -12270" class="C1" /><path d="M 920245 1000000 c 6776 0 12270 -5493 12270 -12270" class="C1" /><path d="M 920245 1000000 l -907975 0" class="C1" /><path d="M 12270 18405 l 907975 0" class="C1" /><path d="M 0 288344 l 932515 0" class="C1" /><path d="M 0 337423 l 932515 0" class="C1" /><path d="M 490798 42945 c -6776 0 -12270 5493 -12270 12270" class="C1" /><path d="M 478528 251534 c 0 6776 5493 12270 12270 12270" class="C1" /><path d="M 478528 251534 l 0 -196319" class="C1" /><path d="M 527607 263804 l 0 -220859" class="C1" /><path d="M 907975 251534 l 0 -196319" class="C1" /><path d="M 907975 55215 c 0 -6776 -5493 -12270 -12270 -12270" class="C1" /><path d="M 895706 263804 c 6776 0 12270 -5493 12270 -12270" class="C1" /><path d="M 490798 42945 l 404908 0" class="C1" /><path d="M 895706 263804 l -404908 0" class="C1" /><path d="M 36810 42945 c -6776 0 -12270 5493 -12270 12270" class="C1" /><path d="M 24540 251534 c 0 6776 5493 12270 12270 12270" class="C1" /><path d="M 24540 251534 l 0 -196319" class="C1" /><path d="M 73620 263804 l 0 -220859" class="C1" /><path d="M 453988 251534 l 0 -196319" class="C1" /><path d="M 453988 55215 c 0 -6776 -5493 -12270 -12270 -12270" class="C1" /><path d="M 441718 263804 c 6776 0 12270 -5493 12270 -12270" class="C1" /><path d="M 36810 42945 l 404908 0" class="C1" /><path d="M 441718 263804 l -404908 0" class="C1" /><path d="M 0 18405 l 0 -18405" class="C1" /><path d="M 0 18405 l 932515 0" class="C1" /><path d="M 932515 18405 l 0 -18405" class="C1" /><path d="M 0 0 l 932515 0" class="C1" /></g></svg>