<?xml version='1.0' encoding='utf-8'?>
<svg xmlns="http://www.w3.org/2000/svg" width="24mm" height="36mm" viewBox="0 0 666667 1000000"><defs><style>.C1 {stroke: #000000; stroke-width: 5000; stroke-opacity: 1.000; fill: none; fill-opacity: 1.000;}</style></defs><g stroke-linecap="round" stroke-linejoin="round" fill-rule="evenodd"><path d="M 611111 1000000 c 30682 0 55556 -24873 55556 -55556" class="C1" /><path d="M 0 944444 c 0 30682 24873 55556 55556 55556" class="C1" /><path d="M 0 277778 c 0 30682 24873 55556 55556 55556" class="C1" /><path d="M 55556 0 c -30682 0 -55556 24873 -55556 55556" class="C1" /><path d="M 0 277778 l 0 -166667" class="C1" /><path d="M 0 111111 l 0 -55556" class="C1" /><path d="M 611111 333333 c 30682 0 55556 -24873 55556 -55556" class="C1" /><path d="M 666667 55556 c 0 -30682 -24873 -55556 -55556 -55556" class="C1" /><path d="M 55556 0 l 555556 0" class="C1" /><path d="M 55556 333333 l 555556 0" class="C1" /><path d="M 666667 944444 l 0 -666667" class="C1" /><path d="M 0 944444 l 0 -666667" class="C1" /><path d="M 611111 1000000 l -555556 0" class="C1" /><path d="M 0 111111 l 666667 0" class="C1" /><path d="M 666667 111111 l 0 166667" class="C1" /><path d="M 666667 111111 l 0 -55556" class="C1" /></g></svg>