<?xml version='1.0' encoding='utf-8'?>
<svg xmlns="http://www.w3.org/2000/svg" width="31.5mm" height="20.5mm" viewBox="0 0 1000000 650794"><defs><style>.C1 {stroke: #000000; stroke-width: 5714; stroke-opacity: 1.000; fill: none; fill-opacity: 1.000;}</style></defs><g stroke-linecap="round" stroke-linejoin="round" fill-rule="evenodd"><path d="M 47619 0 c -26299 0 -47619 21320 -47619 47619" class="C1" /><path d="M 47619 0 l 904762 0" class="C1" /><path d="M 1000000 47619 c 0 -26299 -21320 -47619 -47619 -47619" class="C1" /><path d="M 1000000 47619 l 0 555556" class="C1" /><path d="M 952381 650794 c 26299 0 47619 -21320 47619 -47619" class="C1" /><path d="M 0 603175 l 0 -555556" class="C1" /><path d="M 952381 650794 l -904762 0" class="C1" /><path d="M 0 603175 c 0 26299 21320 47619 47619 47619" class="C1" /><path d="M 63492 95238 c -17533 0 -31746 14213 -31746 31746" class="C1" /><path d="M 968254 126984 c 0 -17533 -14213 -31746 -31746 -31746" class="C1" /><path d="M 968254 126984 l 0 460317" class="C1" /><path d="M 936508 619048 c 17533 0 31746 -14213 31746 -31746" class="C1" /><path d="M 63492 95238 l 380952 0" class="C1" /><path d="M 476190 126984 c 0 -17533 -14213 -31746 -31746 -31746" class="C1" /><path d="M 555556 95238 l 380952 0" class="C1" /><path d="M 555556 95238 c -17533 0 -31746 14213 -31746 31746" class="C1" /><path d="M 523810 126984 l 0 460317" class="C1" /><path d="M 936508 619048 l -380952 0" class="C1" /><path d="M 523810 587302 c 0 17533 14213 31746 31746 31746" class="C1" /><path d="M 476190 126984 l 0 460317" class="C1" /><path d="M 444444 619048 c 17533 0 31746 -14213 31746 -31746" class="C1" /><path d="M 444444 619048 l -380952 0" class="C1" /><path d="M 31746 587302 l 0 -460317" class="C1" /><path d="M 31746 587302 c 0 17533 14213 31746 31746 31746" class="C1" /><path d="M 301587 222222 c 0 26299 -21320 47619 -47619 47619 c -26299 0 -47619 -21320 -47619 -47619 c 0 -26299 21320 -47619 47619 -47619 c 26299 0 47619 21320 47619 47619" class="C1" /><path d="M 793651 222222 c 0 26299 -21320 47619 -47619 47619 c -26299 0 -47619 -21320 -47619 -47619 c 0 -26299 21320 -47619 47619 -47619 c 26299 0 47619 21320 47619 47619" class="C1" /></g></svg>