<?xml version='1.0' encoding='utf-8'?>
<svg xmlns="http://www.w3.org/2000/svg" width="88mm" height="36mm" viewBox="0 0 1000000 409091"><defs><style>.C1 {stroke: #000000; stroke-width: 2045; stroke-opacity: 1.000; fill: none; fill-opacity: 1.000;}</style></defs><g stroke-linecap="round" stroke-linejoin="round" fill-rule="evenodd"><path d="M 0 386364 c 0 12552 10175 22727 22727 22727" class="C1" /><path d="M 68182 409091 l -45455 0" class="C1" /><path d="M 90909 386364 l 0 -250000" class="C1" /><path d="M 68182 409091 c 12552 0 22727 -10175 22727 -22727" class="C1" /><path d="M 0 113636 c 0 12552 10175 22727 22727 22727" class="C1" /><path d="M 0 386364 l 0 -272727" class="C1" /><path d="M 22727 0 c -12552 0 -22727 10175 -22727 22727" class="C1" /><path d="M 0 113636 l 0 -68182" class="C1" /><path d="M 0 45455 l 0 -22727" class="C1" /><path d="M 363636 386364 l 0 -250000" class="C1" /><path d="M 340909 409091 c 12552 0 22727 -10175 22727 -22727" class="C1" /><path d="M 90909 386364 c 0 12552 10175 22727 22727 22727" class="C1" /><path d="M 363636 386364 c 0 12552 10175 22727 22727 22727" class="C1" /><path d="M 977273 409091 c 12552 0 22727 -10175 22727 -22727" class="C1" /><path d="M 909091 136364 l 0 250000" class="C1" /><path d="M 977273 409091 l -45455 0" class="C1" /><path d="M 909091 386364 c 0 12552 10175 22727 22727 22727" class="C1" /><path d="M 977273 136364 c 12552 0 22727 -10175 22727 -22727" class="C1" /><path d="M 1000000 113636 l 0 272727" class="C1" /><path d="M 1000000 22727 l 0 90909" class="C1" /><path d="M 1000000 22727 c 0 -12552 -10175 -22727 -22727 -22727" class="C1" /><path d="M 886364 409091 c 12552 0 22727 -10175 22727 -22727" class="C1" /><path d="M 636364 386364 l 0 -250000" class="C1" /><path d="M 613636 409091 c 12552 0 22727 -10175 22727 -22727" class="C1" /><path d="M 636364 386364 c 0 12552 10175 22727 22727 22727" class="C1" /><path d="M 22727 0 l 954545 0" class="C1" /><path d="M 0 45455 l 1000000 0" class="C1" /><path d="M 22727 136364 l 954545 0" class="C1" /><path d="M 886364 409091 l -818182 0" class="C1" /></g></svg>