<?xml version='1.0' encoding='utf-8'?>
<svg xmlns="http://www.w3.org/2000/svg" width="18mm" height="28.8mm" viewBox="0 0 625000 1000000"><defs><style>.C1 {stroke: #000000; stroke-width: 1736; stroke-opacity: 1.000; fill: none; fill-opacity: 1.000;}</style></defs><g stroke-linecap="round" stroke-linejoin="round" fill-rule="evenodd"><path d="M 312500 469100 c 105471 0 190972 101047 190972 225694 c -0 124648 -85501 225694 -190972 225694 c -105471 0 -190972 -101047 -190972 -225694 c 0 -124648 85501 -225694 190972 -225694" class="C1" /><path d="M 625000 35072 c 0 -19177 -15546 -34722 -34722 -34722" class="C1" /><path d="M 625000 243405 l 0 -208333" class="C1" /><path d="M 590278 278127 c 19177 0 34722 -15546 34722 -34722" class="C1" /><path d="M 34722 350 l 555556 0" class="C1" /><path d="M 34722 350 c -19177 0 -34722 15546 -34722 34722" class="C1" /><path d="M 0 243405 l 0 -208333" class="C1" /><path d="M 34722 278127 l 555556 0" class="C1" /><path d="M 0 243405 c 0 19177 15546 34722 34722 34722" class="C1" /><path d="M 128641 513113 c 27303 -51075 42678 -107672 44970 -165541" class="C1" /><path d="M 451389 347572 c 1680 55453 15415 109874 40250 159483" class="C1" /><path d="M 173611 347572 l 0 -69444" class="C1" /><path d="M 451389 347572 l 0 -69444" class="C1" /><path d="M 128641 513113 c -85412 112896 -77500 282747 17915 384642 c 95416 101895 244231 99411 337003 -5624 c 92772 -105036 96340 -275079 8080 -385076" class="C1" /></g></svg>